<svg xmlns="http://www.w3.org/2000/svg" width="64" height="64" viewBox="0 0 64 64" role="img" aria-label="Slither Link">
  <defs>
    <linearGradient id="grad" x1="0" y1="0" x2="1" y2="1">
      <stop offset="0%" stop-color="#007BFF"/>
      <stop offset="100%" stop-color="#6f42c1"/>
    </linearGradient>
  </defs>
  <!-- punts de la graella -->
  <g fill="#aaa">
    <circle cx="12" cy="12" r="2"/>
    <circle cx="24" cy="12" r="2"/>
    <circle cx="36" cy="12" r="2"/>
    <circle cx="48" cy="12" r="2"/>
    <circle cx="12" cy="24" r="2"/>
    <circle cx="24" cy="24" r="2"/>
    <circle cx="36" cy="24" r="2"/>
    <circle cx="48" cy="24" r="2"/>
    <circle cx="12" cy="36" r="2"/>
    <circle cx="24" cy="36" r="2"/>
    <circle cx="36" cy="36" r="2"/>
    <circle cx="48" cy="36" r="2"/>
    <circle cx="12" cy="48" r="2"/>
    <circle cx="24" cy="48" r="2"/>
    <circle cx="36" cy="48" r="2"/>
    <circle cx="48" cy="48" r="2"/>
  </g>
  <!-- bucle tancat -->
  <path d="M12 12 H48 V36 H24 V48 H12 Z"
        fill="none" stroke="url(#grad)" stroke-width="6" stroke-linecap="round" stroke-linejoin="round"/>
</svg>

